# xmcd
#
# Track frame offsets:
#	150
#	15834
#	29106
#	46734
#	59526
#	76368
#
# Disc length: 1209 seconds
#
# Revision: 0
# Processed by: cddbd v1.5.2PL0 Copyright (c) Steve Scherf et al.
# Submitted via: dBpowerAMP V4.0
#
DISCID=4104b706
DTITLE=Adam Kilpatrick - Big Man
DYEAR=1900
DGENRE=Country
TTITLE0=Big man
TTITLE1=I'm Free
TTITLE2=Great big softy
TTITLE3=Daytime and Nightime
TTITLE4=Waiting for rain
TTITLE5=Dreamer
EXTD=
EXTT0=
EXTT1=
EXTT2=
EXTT3=
EXTT4=
EXTT5=
PLAYORDER=
